<svg version="1.1" id="レイヤー_1" xmlns="http://www.w3.org/2000/svg" x="0" y="0" width="606" height="100" viewBox="0 0 606 100" xml:space="preserve"><style>.st0{fill:#1a1311}</style><path id="パス_1" class="st0" d="M50.4 44.3h48.9c0 4.6-.2 9.1-.6 13.7-.4 3.9-1.2 7.7-2.5 11.4-1.6 4.7-4.1 9.2-7.2 13.1-3 3.8-6.6 7-10.6 9.5-4.1 2.6-8.7 4.6-13.4 5.8-5 1.4-10.1 2-15.3 2-6.9.1-13.7-1.1-20.2-3.6-5.9-2.3-11.2-5.8-15.6-10.2C9.5 81.5 6 76.1 3.7 70.2c-4.8-13.1-4.9-27.6-.1-40.7 2.2-5.9 5.7-11.3 10.2-15.8 4.5-4.4 10-7.9 15.9-10.2C36.3 1.1 43.3-.1 50.4 0c9.9 0 18.5 2.1 26 6.4 7.5 4.3 13.4 10.9 17.7 19.8l-23.4 9.7c-2.2-5.2-5-8.9-8.5-11.2-3.5-2.3-7.7-3.5-11.9-3.4-3.5 0-6.9.7-10 2.1-3 1.4-5.6 3.4-7.7 5.9-2.2 2.7-3.9 5.9-5 9.2-1.3 3.9-1.9 8-1.8 12.1 0 3.8.5 7.6 1.6 11.2 1 3.3 2.6 6.3 4.7 8.9 2.1 2.5 4.8 4.5 7.8 5.8 3.4 1.4 7.1 2.2 10.8 2.1 2.4 0 4.7-.3 7-.8 2.2-.5 4.2-1.4 6.1-2.6 1.8-1.2 3.3-2.8 4.5-4.7 1.3-2.2 2.1-4.6 2.4-7H50.4V44.3z"/><path id="パス_2" class="st0" d="M161.2 23.5h-29.3v15.8h27.6v20.9h-27.6v16.3h29.3v20.9h-53.9V2.6h53.9v20.9z"/><path id="パス_3" class="st0" d="M225.2 23.5H196v15.8h27.6v20.9H196v16.3h29.3v20.9h-53.9V2.6h53.9l-.1 20.9z"/><path id="パス_4" class="st0" d="M260 41.7l30-39.1h30.4l-37.6 44.8 41.2 50h-31.9l-32-41.1v41.1h-24.6V2.6H260v39.1z"/><path id="パス_5" class="st0" d="M330.2 85.3c0-2 .4-3.9 1.1-5.7 3.1-7.5 11.7-11 19.2-7.9 3.6 1.5 6.4 4.3 7.9 7.9 1.5 3.7 1.5 7.8 0 11.4-1.5 3.6-4.3 6.4-7.9 7.9-3.7 1.5-7.8 1.5-11.4 0-5.4-2.3-9-7.7-8.9-13.6z"/><path id="パス_6" class="st0" d="M370.3 97.4V2.6h24.6l45.5 57.9V2.6h24.5v94.7h-24.5l-45.5-57.9v57.9h-24.6z"/><path id="パス_7" class="st0" d="M529.6 23.5H500v15.8h27v20.9h-27v37.2h-24.6V2.6h54.3l-.1 20.9z"/><path id="パス_8" class="st0" d="M585.4 23.5v73.9h-24.6V23.5h-20.2V2.6h65.1v20.9h-20.3z"/></svg>