<?xml version="1.0" encoding="utf-8"?>
<!-- Generator: Adobe Illustrator 26.3.1, SVG Export Plug-In . SVG Version: 6.00 Build 0)  -->
<svg version="1.1" id="レイヤー_1" xmlns="http://www.w3.org/2000/svg" xmlns:xlink="http://www.w3.org/1999/xlink" x="0px"
	 y="0px" viewBox="0 0 19.1 33" style="enable-background:new 0 0 19.1 33;" xml:space="preserve">
<path d="M2.9,21L2.9,21c-1,0-1.5-0.4-1.8-0.6c-0.7-0.7-0.7-1.6-0.7-1.7v-14c0-1.7,1.5-2.4,2.4-2.4h4.5c0.1,0,1.1,0,1.8,0.7
	c0.3,0.3,0.7,0.9,0.7,1.8v13.8c0,1.8-1.5,2.4-2.5,2.5L2.9,21z M2.9,19.6h4.4c0.2,0,1.1-0.1,1.1-1.1V4.7c0-0.3-0.1-0.6-0.3-0.8
	C7.8,3.7,7.3,3.6,7.3,3.6H2.9c-0.3,0-1.1,0.1-1.1,1v14C1.8,19,1.9,19.6,2.9,19.6L2.9,19.6z M16.3,32.6H2.5c-1.8,0-2.4-1.5-2.5-2.5
	v-4.6c0-0.9,0.4-1.4,0.6-1.7c0.7-0.7,1.6-0.7,1.7-0.7h14c1.7,0,2.4,1.5,2.4,2.4V30c0,0.1,0,1.1-0.7,1.8
	C17.7,32.3,17.2,32.6,16.3,32.6z M1.4,25.8v4.4c0,0.2,0.1,1.1,1.1,1.1h13.8c1,0,1.1-0.8,1.1-1.1v-4.4c0-0.3-0.1-1.1-1-1.1h-14
	c-0.4,0-1,0.1-1,1C1.4,25.7,1.4,25.8,1.4,25.8z"/>
<path d="M10.6,0.3L10.6,0.3C10.3,1.2,9.7,2,8.3,2.2H2.9l5.6,1.4c2.3-0.3,3.1-1.9,3.4-2.9c0.2-0.5-0.3-0.6-0.3-0.6L11.1,0
	C11.1,0,10.7-0.1,10.6,0.3z"/>
</svg>
